<?xml version="1.0" encoding="UTF-8" standalone="no"?> <svg id="outline" xmlns="http://www.w3.org/2000/svg" viewBox="0 0 128 128"><path d="M117.7,64.2V60.505a4.994,4.994,0,0,0-4.741-4.974V39.968a7.943,7.943,0,0,0-2.344-5.657l-8.7-8.7a4.984,4.984,0,0,0-.735-6.106c-1.376-1.442-2.951-3.179-5.133-3.062a4.963,4.963,0,0,0-3.535,1.464L86.6,23.826a11.315,11.315,0,0,0-10.42,3.059,2,2,0,0,0,0,2.828l13.2,13.2c3.37,2.846,6.564-5.667,6.138-8.227l6.062,6.062a1.99,1.99,0,0,1,.585,1.415V55.521a5,5,0,0,0-4.837,4.984v3.614H76.659V61.772a5,5,0,0,0-4.943-4.994V53.426H86.291a4.991,4.991,0,0,0,4.984-4.985,2,2,0,0,0-4,0,.985.985,0,0,1-.984.985H41.709a.985.985,0,0,1-.984-.985V45.55H81.861a2,2,0,0,0,0-4H40.72V19.71H84.361a2,2,0,0,0,0-4H40.22a3.5,3.5,0,0,0-3.5,3.5c.005.049-.01,24.344.005,24.388v4.843a4.991,4.991,0,0,0,4.984,4.985h14.4v3.352a5,5,0,0,0-4.944,4.994v2.347H32.792c.454-.065.1-17.56.209-18.164a5.006,5.006,0,0,0-5-5c-1.843.053-4.807-.344-6.267,1.026-1.473-1.358-4.412-.989-6.267-1.026a5.006,5.006,0,0,0-5,5V62.768a4.924,4.924,0,0,0,.221,1.391,4.991,4.991,0,0,0-4.6,4.96v5.029a5.006,5.006,0,0,0,5,5h2.978V116.6a5.006,5.006,0,0,0,5,5H40.255a5.006,5.006,0,0,0,5-5V88.607H94.667a2,2,0,0,0,0-4H45.255V79.148h56.256V116.6a5.006,5.006,0,0,0,5,5h2.808a5.006,5.006,0,0,0,5-5V79.148h2.6a5.006,5.006,0,0,0,5-5V69.119A5,5,0,0,0,117.7,64.2ZM41.255,89.532H18.063V79.5H41.255Zm-23.192,4H41.255v10.031H18.063ZM41.255,116.6a1,1,0,0,1-1,1H19.063a1,1,0,0,1-1-1v-9.033H41.255Zm69.064,0a1,1,0,0,1-1,1h-2.808a1,1,0,0,1-1-1V79.5h4.808ZM95.343,20.735a1,1,0,0,1,1.414,0l1.6,1.6c.7.812.053,1.4-.564,1.978l-4.22,4.22a11.34,11.34,0,0,0-3.013-3.011ZM90.6,38.479,80.614,28.5C86.989,24.905,94.187,32.107,90.6,38.479Zm6.523-7.842,2.083-2.083,8.584,8.585a3.973,3.973,0,0,1,1.172,2.829V55.505h-2.8V42.168a5.96,5.96,0,0,0-1.757-4.243Zm4.207,29.868a1,1,0,0,1,1-1H112.7a1,1,0,0,1,1,1v3.263H101.329ZM67.716,53.426v3.346h-7.6V53.426ZM55.169,61.772a1,1,0,0,1,1-1h15.49a1,1,0,0,1,1,1v2.347H55.169ZM24.734,44.955H28a1,1,0,0,1,1,1V62.768a1,1,0,0,1-1,1H24.734a1,1,0,0,1-1-1V45.955A1,1,0,0,1,24.734,44.955Zm-10.267,1a1,1,0,0,1,1-1h3.267a1,1,0,0,1,1,1V62.768a1,1,0,0,1-1,1H15.467a1,1,0,0,1-1-1ZM117.915,74.148a1,1,0,0,1-1,1H11.085a1,1,0,0,1-1-1V69.119a1,1,0,0,1,1-1h105.83a1,1,0,0,1,1,1Z"/><path d="M29.66,86.594a2.078,2.078,0,0,0,0-4.156A2.078,2.078,0,0,0,29.66,86.594Z"/><path d="M29.66,96.766a2.079,2.079,0,0,0,0,4.157A2.079,2.079,0,0,0,29.66,96.766Z"/><path d="M29.66,114.645a2.079,2.079,0,0,0,0-4.157A2.079,2.079,0,0,0,29.66,114.645Z"/></svg>