<?xml version="1.0" encoding="utf-8"?>
<!-- Generator: Adobe Illustrator 23.0.2, SVG Export Plug-In . SVG Version: 6.00 Build 0)  -->
<svg version="1.1" id="Layer_1" xmlns="http://www.w3.org/2000/svg" xmlns:xlink="http://www.w3.org/1999/xlink" x="0px" y="0px"
	 viewBox="0 0 89.805 209.955" enable-background="new 0 0 89.805 209.955" xml:space="preserve">
<g>
	<path d="M2.8525,64.0913L27.7529,79.435v34.811v16.2032V199.58c0,5.7285,4.6455,10.375,10.3779,10.375
		c5.7266,0,10.373-4.6465,10.373-10.375v-53.509h4.1133v53.509c0,5.7285,4.6465,10.375,10.377,10.375
		c5.7285,0,10.375-4.6465,10.375-10.375v-69.1307V114.246V89.8108c2.3909,7.1993,4.7063,20.8834,4.4092,46.8586
		c-0.0371,3.3135,2.6182,6.0303,5.9316,6.0679c0.0234,0.0005,0.0459,0.0005,0.0693,0.0005c3.2822,0,5.9609-2.6416,5.999-5.9316
		c0.3857-33.7886-3.3994-54.2314-11.5703-62.4976c-2.7341-2.7646-6.0442-4.2929-9.6091-4.4829
		c-0.397-0.0785-0.8081-0.1207-1.2297-0.1207H34.8363l-15.9408-9.8232l10.9017-4.7789c-1.3033-2.868-2.0355-6.0484-2.0355-9.3985
		c0-0.9813,0.0693-1.946,0.1902-2.895L3.5908,53.4882c-2.0439,0.896-3.4209,2.8521-3.5762,5.0781S0.9521,62.9209,2.8525,64.0913z"/>
	<path d="M30.061,45.7043c0,11.3218,9.1782,20.5,20.5,20.5c11.3219,0,20.5-9.1782,20.5-20.5s-9.1781-20.5-20.5-20.5
		C39.2392,25.2043,30.061,34.3825,30.061,45.7043z M53.4116,45.7332c2.9226,0,5.2917,3.1154,5.2917,6.9583
		s-2.3691,6.9583-5.2917,6.9583c-2.9224,0-5.2916-3.1154-5.2916-6.9583S50.4892,45.7332,53.4116,45.7332z"/>
	<path d="M76.7932,24.732c1.6802,0.3658,2.9185-0.6749,3.2068-1.9987c0.319-1.465-0.4496-2.7568-2.1648-3.1302
		c-1.574-0.3427-2.8954,0.5687-3.1989,1.9623C74.3247,22.9969,75.0402,24.3502,76.7932,24.732z"/>
	<path d="M79.9053,4.5881c0.109-0.5004,0.3502-0.748,0.6874-0.7493c0.4968-0.0427,1.0685,0.0818,1.6765,0.2142
		c1.3938,0.3035,2.1404,1.1776,1.8289,2.6091c-0.4049,1.8591-1.5667,2.205-3.3533,3.0137
		c-2.4869,1.1071-3.7864,1.9106-4.1536,4.9756l-0.3105,2.6293l3.7548,0.8176l0.3738-1.7166
		c0.4982-2.2883,1.0713-2.6877,3.5438-3.7218c3.0071-1.256,4.4336-2.818,5.0173-5.4991c0.5372-2.4672-0.5048-5.7644-5.3679-6.8233
		c-2.4673-0.5372-5.2405-0.3548-6.8547,0.0053l-1.1289,5.1847l3.8351,1.1337L79.9053,4.5881z"/>
</g>
</svg>
