<?xml version="1.0" encoding="utf-8"?>
<!-- Generator: Adobe Illustrator 18.0.0, SVG Export Plug-In . SVG Version: 6.00 Build 0)  -->
<!DOCTYPE svg PUBLIC "-//W3C//DTD SVG 1.1//EN" "http://www.w3.org/Graphics/SVG/1.1/DTD/svg11.dtd">
<svg version="1.1" id="Layer_1" xmlns="http://www.w3.org/2000/svg" xmlns:xlink="http://www.w3.org/1999/xlink" x="0px" y="0px"
	 viewBox="0 0 63.2 67.4" enable-background="new 0 0 63.2 67.4" xml:space="preserve">
<g>
	<g>
		<defs>
			<rect id="SVGID_1_" x="3" y="4.1" width="59.1" height="59.2"/>
		</defs>
		<clipPath id="SVGID_2_">
			<use xlink:href="#SVGID_1_"  overflow="visible"/>
		</clipPath>
		<path clip-path="url(#SVGID_2_)" d="M61.4,38.4c-1.1-4.6-3.9-8.7-7.7-11.5c-3.6-2.6-8.1-4-12.6-3.8c-2.1-4.4-5.6-7.9-10.2-9.9
			c-0.4-0.2-1,0-1.2,0.5c-0.2,0.4,0,1,0.5,1.2c4.3,1.9,7.7,5.2,9.5,9.5c0.4,0.9,0.7,1.9,1,2.9c0.1,0.3,0.1,0.5,0.2,0.8v0
			c0.9,4.5,0.1,9.1-2.3,13c-2.2,3.7-5.7,6.4-9.7,7.8c-0.1-0.2-0.1-0.3-0.2-0.5c0,0,0,0,0,0c-0.1-0.3-0.2-0.7-0.4-1c0,0,0-0.1,0-0.1
			c0-0.2-0.1-0.3-0.1-0.5l0,0c7.6-2.6,12.3-10.5,10.6-18.5v0c0-0.2-0.1-0.4-0.1-0.5c-0.3-1.2-0.7-2.3-1.3-3.4c0,0,0,0,0,0
			c0,0,0,0,0,0c-1.6-3.2-4.3-5.8-7.5-7.3c-1.6-0.7-3.2-1.2-4.9-1.4l6.2-5.8c0.3-0.3,0.4-0.8,0.1-1.1l0,0c0,0,0,0,0,0l-2.9-4.3
			c-0.2-0.2-0.4-0.4-0.7-0.4h-9.3c-0.3,0-0.6,0.1-0.7,0.4l-2.9,4.3c-0.2,0.4-0.2,0.8,0.1,1.1l6.2,5.8c-0.6,0.1-1.3,0.2-1.9,0.3
			C10.7,18.1,5.4,26.8,7.5,35.4c0.9,3.5,2.9,6.7,5.8,8.9c2.7,2,5.9,3.2,9.2,3.3c0,0.1,0,0.1,0,0.2c0,0.2,0.1,0.3,0.1,0.5
			c0,0,0,0.1,0,0.1c0,0.1,0.1,0.3,0.1,0.4c0,0,0,0.1,0,0.1c0,0.1,0.1,0.3,0.1,0.4c0,0,0,0,0,0.1c0.1,0.2,0.1,0.3,0.2,0.5
			c-3.8,0-7.6-1.2-10.8-3.5c-3.5-2.5-6-6.3-7-10.5c-1-4.2-0.5-8.7,1.4-12.5c1.9-3.8,5.1-6.9,9-8.5c0.4-0.2,0.6-0.7,0.5-1.1
			c-0.2-0.4-0.7-0.6-1.1-0.5c-4.3,1.9-7.8,5.2-9.9,9.4c-2.1,4.2-2.7,9.1-1.6,13.7c1.1,4.6,3.9,8.7,7.7,11.5
			c3.4,2.5,7.5,3.8,11.7,3.8c0.3,0,0.5,0,0.8,0c3.3,7,10.4,11.5,18.1,11.5c1.6,0,3.1-0.2,4.7-0.6C57.5,60,64,49.1,61.4,38.4
			L61.4,38.4z M40.2,42c2.4-4,3.4-8.6,2.7-13.2c2.8,0.2,5.6,1.2,7.9,3c2.6,2,4.4,4.7,5.1,7.9c1.9,7.7-2.8,15.4-10.5,17.3
			c-3.7,0.9-7.6,0.3-10.8-1.7c-2-1.2-3.7-2.9-4.8-4.9C34.1,49,37.8,46,40.2,42L40.2,42z M27.8,45.1c-0.4-3.2,0.2-6.4,1.8-9.2
			c1.7-2.9,4.4-5.1,7.6-6.2C38.2,36.4,34.2,42.9,27.8,45.1L27.8,45.1z M18.9,5.9h8.4L29,8.4H17.2L18.9,5.9z M17.8,10.2h10.6
			l-5.3,4.9L17.8,10.2z M22.2,45.9c-2.8-0.2-5.6-1.2-7.8-2.9c-2.6-2-4.4-4.8-5.2-8C7.3,27.4,12,19.6,19.7,17.8
			c3.2-0.8,6.5-0.5,9.5,0.9c2.6,1.2,4.8,3.2,6.2,5.6c-4.5,1.6-8.2,4.7-10.6,8.8C22.4,37,21.6,41.5,22.2,45.9L22.2,45.9z M46.3,60.9
			c-1.4,0.4-2.9,0.5-4.3,0.5c-7.3,0-13.9-4.4-16.8-11.1c0-0.1-0.1-0.1-0.1-0.2c0,0,0-0.1,0-0.1c0-0.1-0.1-0.2-0.1-0.3c0,0,0,0,0,0
			c0-0.1-0.1-0.2-0.1-0.3c0,0,0,0,0,0c0-0.1-0.1-0.2-0.1-0.4c0,0,0,0,0,0c0-0.1-0.1-0.2-0.1-0.4c0,0,0,0,0,0c0-0.1-0.1-0.2-0.1-0.3
			c0,0,0-0.1,0-0.1c0-0.1,0-0.2-0.1-0.3c0-0.1-0.1-0.2-0.1-0.4c0-0.1-0.1-0.3-0.1-0.4c0,0,0-0.1,0-0.2c0-0.1,0-0.1,0-0.2
			c0,0,0-0.1,0-0.1c0,0,0,0,0,0c-0.8-4.3-0.1-8.8,2.1-12.6c2.2-3.9,5.7-6.7,9.9-8.1c0.3,0.7,0.5,1.4,0.7,2.1
			c-3.7,1.2-6.7,3.7-8.7,7.1c-2,3.5-2.7,7.5-1.9,11.4c0,0,0,0,0,0c0,0,0,0,0,0c0,0.1,0,0.1,0,0.2c0,0.1,0,0.2,0.1,0.3
			c0,0.1,0.1,0.3,0.1,0.4c0,0,0,0.1,0,0.1c0,0.1,0.1,0.2,0.1,0.3c0,0,0,0.1,0,0.1c0,0.1,0.1,0.2,0.1,0.3c0,0,0,0,0,0.1
			c0,0.1,0.1,0.3,0.1,0.4c0,0,0,0,0,0c1.2,3.4,3.6,6.2,6.7,8.2c2.5,1.5,5.4,2.3,8.3,2.3c1.3,0,2.6-0.2,3.8-0.5
			c8.6-2.1,13.9-10.8,11.8-19.4c-0.9-3.6-2.9-6.6-5.8-8.9c-2.7-2.1-5.9-3.2-9.3-3.4c0-0.1,0-0.1,0-0.2c-0.2-0.7-0.4-1.3-0.6-2
			c3.9,0,7.7,1.2,10.8,3.5c3.5,2.5,6,6.2,7,10.4C62.1,48.6,56.1,58.5,46.3,60.9L46.3,60.9z M46.3,60.9"/>
	</g>
</g>
</svg>
